<svg width="29" height="30" viewBox="0 0 29 30" fill="none" xmlns="http://www.w3.org/2000/svg">
<path d="M21.0207 15.8666C21.0094 13.9484 21.8785 12.5028 23.6335 11.4369C22.6519 10.0306 21.1669 9.25719 19.2094 9.10812C17.356 8.96187 15.3282 10.1881 14.5857 10.1881C13.801 10.1881 12.0066 9.15875 10.5947 9.15875C7.68097 9.20375 4.58441 11.4819 4.58441 16.1169C4.58441 17.4866 4.83472 18.9012 5.33535 20.3581C6.00472 22.2763 8.41785 26.9759 10.935 26.9C12.2513 26.8691 13.1822 25.9662 14.895 25.9662C16.5572 25.9662 17.4178 26.9 18.886 26.9C21.4257 26.8634 23.6082 22.5912 24.2438 20.6675C20.8378 19.0616 21.0207 15.965 21.0207 15.8666ZM18.0647 7.28844C19.4907 5.59531 19.3613 4.05406 19.3191 3.5C18.0591 3.57312 16.6022 4.35781 15.7725 5.3225C14.8585 6.3575 14.3213 7.63719 14.4366 9.08C15.7978 9.18406 17.041 8.48375 18.0647 7.28844Z" fill="white"/>
</svg>
