<svg width="26" height="26" viewBox="0 0 26 26" fill="none" xmlns="http://www.w3.org/2000/svg">
<path d="M21.3506 6.81632C21.4515 6.91695 21.5315 7.0365 21.5861 7.16811C21.6407 7.29972 21.6688 7.44082 21.6688 7.58332C21.6688 7.72581 21.6407 7.86691 21.5861 7.99852C21.5315 8.13014 21.4515 8.24968 21.3506 8.35032L11.6006 18.1003C11.4999 18.2012 11.3804 18.2812 11.2488 18.3359C11.1172 18.3905 10.9761 18.4186 10.8336 18.4186C10.6911 18.4186 10.55 18.3905 10.4184 18.3359C10.2867 18.2812 10.1672 18.2012 10.0666 18.1003L5.73323 13.767C5.52981 13.5636 5.41553 13.2877 5.41553 13C5.41553 12.7123 5.52981 12.4364 5.73323 12.233C5.93665 12.0296 6.21255 11.9153 6.50023 11.9153C6.78791 11.9153 7.06381 12.0296 7.26723 12.233L10.8336 15.8015L19.8166 6.81632C19.9172 6.71543 20.0367 6.63539 20.1684 6.58077C20.3 6.52616 20.4411 6.49805 20.5836 6.49805C20.7261 6.49805 20.8672 6.52616 20.9988 6.58077C21.1304 6.63539 21.2499 6.71543 21.3506 6.81632Z" fill="#0030E2"/>
</svg>
