<svg width="26" height="26" viewBox="0 0 26 26" fill="none" xmlns="http://www.w3.org/2000/svg">
<path d="M6.1966 6.19666C6.34895 6.04451 6.55546 5.95905 6.77077 5.95905C6.98608 5.95905 7.19259 6.04451 7.34494 6.19666L12.9999 11.8517L18.6549 6.19666C18.7542 6.08971 18.8806 6.01153 19.0206 5.97035C19.1606 5.92916 19.3091 5.92651 19.4505 5.96266C19.5919 5.99882 19.721 6.07244 19.824 6.17578C19.9271 6.27911 20.0004 6.40834 20.0362 6.54983C20.0724 6.69107 20.0699 6.83946 20.0289 6.97939C19.9879 7.11931 19.91 7.24561 19.8033 7.345L14.1483 13L19.8033 18.655C19.9102 18.7543 19.9884 18.8806 20.0296 19.0206C20.0708 19.1607 20.0734 19.3092 20.0373 19.4506C20.0011 19.592 19.9275 19.721 19.8242 19.8241C19.7208 19.9272 19.5916 20.0005 19.4501 20.0362C19.3089 20.0725 19.1605 20.0699 19.0205 20.0289C18.8806 19.988 18.7543 19.91 18.6549 19.8033L12.9999 14.1483L7.34494 19.8033C7.19082 19.9468 6.9871 20.0249 6.77659 20.0213C6.56608 20.0176 6.36517 19.9325 6.2161 19.7838C6.06742 19.6348 5.98232 19.4339 5.97868 19.2233C5.97505 19.0128 6.05316 18.8091 6.1966 18.655L11.8516 13L6.1966 7.345C6.04445 7.19265 5.95898 6.98614 5.95898 6.77083C5.95898 6.55552 6.04445 6.34901 6.1966 6.19666Z" fill="#88888B"/>
</svg>
