<svg width="26" height="27" viewBox="0 0 26 27" fill="none" xmlns="http://www.w3.org/2000/svg">
<path d="M15.47 2.66667C15.9247 2.66678 16.3679 2.80998 16.7368 3.07596C17.1056 3.34194 17.3814 3.71723 17.5251 4.14867L18.1133 5.91667H21.6667C21.954 5.91667 22.2295 6.0308 22.4327 6.23397C22.6359 6.43713 22.75 6.71268 22.75 7C22.75 7.28732 22.6359 7.56287 22.4327 7.76603C22.2295 7.9692 21.954 8.08333 21.6667 8.08333L21.6634 8.16025L20.7242 21.3152C20.6655 22.1348 20.2986 22.9019 19.6972 23.4619C19.0958 24.0218 18.3046 24.3332 17.4828 24.3333H8.51717C7.69541 24.3332 6.9042 24.0218 6.3028 23.4619C5.70139 22.9019 5.33445 22.1348 5.27583 21.3152L4.33658 8.15917C4.33462 8.13393 4.33354 8.10864 4.33333 8.08333C4.04602 8.08333 3.77047 7.9692 3.5673 7.76603C3.36414 7.56287 3.25 7.28732 3.25 7C3.25 6.71268 3.36414 6.43713 3.5673 6.23397C3.77047 6.0308 4.04602 5.91667 4.33333 5.91667H7.88667L8.47492 4.14867C8.61867 3.71705 8.89464 3.34164 9.26369 3.07564C9.63274 2.80964 10.0762 2.66656 10.5311 2.66667H15.47ZM19.4968 8.08333H6.50325L7.43708 21.1602C7.45653 21.4335 7.57876 21.6892 7.77916 21.8759C7.97956 22.0627 8.24325 22.1665 8.51717 22.1667H17.4828C17.7567 22.1665 18.0204 22.0627 18.2208 21.8759C18.4212 21.6892 18.5435 21.4335 18.5629 21.1602L19.4968 8.08333ZM10.8333 11.3333C11.0987 11.3334 11.3548 11.4308 11.5531 11.6071C11.7514 11.7834 11.878 12.0264 11.9091 12.2899L11.9167 12.4167V17.8333C11.9164 18.1095 11.8106 18.375 11.6211 18.5758C11.4315 18.7766 11.1725 18.8974 10.8968 18.9136C10.6212 18.9298 10.3498 18.8401 10.138 18.6629C9.92627 18.4857 9.7902 18.2343 9.75758 17.9601L9.75 17.8333V12.4167C9.75 12.1293 9.86414 11.8538 10.0673 11.6506C10.2705 11.4475 10.546 11.3333 10.8333 11.3333ZM15.1667 11.3333C15.454 11.3333 15.7295 11.4475 15.9327 11.6506C16.1359 11.8538 16.25 12.1293 16.25 12.4167V17.8333C16.25 18.1207 16.1359 18.3962 15.9327 18.5994C15.7295 18.8025 15.454 18.9167 15.1667 18.9167C14.8793 18.9167 14.6038 18.8025 14.4006 18.5994C14.1975 18.3962 14.0833 18.1207 14.0833 17.8333V12.4167C14.0833 12.1293 14.1975 11.8538 14.4006 11.6506C14.6038 11.4475 14.8793 11.3333 15.1667 11.3333ZM15.47 4.83333H10.53L10.1693 5.91667H15.8308L15.47 4.83333Z" fill="#88888B"/>
</svg>
