<svg width="28" height="29" viewBox="0 0 28 29" fill="none" xmlns="http://www.w3.org/2000/svg">
<g clip-path="url(#clip0_256_141)">
<path d="M19.2644 18.6794C22.5762 16.8581 25.0868 15.4703 25.3032 15.3624C25.9955 14.9937 26.7104 14.0178 25.3032 13.2597C24.8489 13.0213 22.4028 11.6767 19.2644 9.94263L14.9138 14.3434L19.2644 18.6793V18.6794Z" fill="#FFD900"/>
<path d="M14.9137 14.3433L1.06073 28.3272C1.38589 28.3703 1.75299 28.284 2.18579 28.0457C3.09445 27.5475 12.7271 22.2787 19.2644 18.6803L14.9137 14.3433Z" fill="#F43249"/>
<path d="M14.9138 14.3433L19.2644 9.96418C19.2644 9.96418 3.16019 1.16145 2.18583 0.641812C1.81874 0.424046 1.40736 0.359359 1.03925 0.424046L14.9138 14.3433Z" fill="#00EE76"/>
<path d="M14.9135 14.3194L1.03895 0.400146C0.475857 0.530541 0 1.02882 0 2.04785V26.6557C0 27.5883 0.368218 28.2601 1.06047 28.3249L14.9135 14.3194Z" fill="#00D3FF"/>
</g>
<defs>
<clipPath id="clip0_256_141">
<rect width="27.2" height="28" fill="white" transform="translate(0 0.400146)"/>
</clipPath>
</defs>
</svg>
