<svg width="41" height="26" viewBox="0 0 41 26" fill="none" xmlns="http://www.w3.org/2000/svg">
<g clip-path="url(#clip0_61_3538)">
<rect width="40.8571" height="26" rx="5" fill="#32FF00"/>
<path d="M7.36404 6.19043H2.00781C2.03608 6.8465 2.05031 7.4601 2.05031 8.03135C2.05031 8.60286 2.03608 9.21652 2.00781 9.87234H3.25576V7.21483H6.11612V9.87234H7.36404C7.33922 9.30102 7.32684 8.68742 7.32684 8.03135C7.32684 7.3756 7.33922 6.76187 7.36404 6.19043Z" fill="#1A1A1A"/>
<path d="M11.9706 6.19043C11.7759 6.65032 11.4795 7.3426 11.3149 7.70939C11.1503 8.07623 10.9546 8.49292 10.7281 8.95955C10.5297 9.36528 10.2404 9.69059 9.85991 9.93573C9.47932 10.1808 9.00043 10.2984 8.42341 10.2882C8.34913 9.99411 8.28976 9.77174 8.24556 9.62132C8.20124 9.47095 8.14199 9.31625 8.06771 9.15728C8.27645 9.20123 8.46941 9.22321 8.64652 9.22321C8.81991 9.22321 8.97573 9.20123 9.11378 9.15728C8.85891 8.53185 8.40391 7.54286 7.74902 6.19043H9.07131L9.91563 8.08719C9.91563 8.08719 10.6395 6.39342 10.6856 6.19043H11.9706Z" fill="#1A1A1A"/>
<path d="M22.0397 6.19043H20.7917V8.84788H17.7195V6.19043H16.5671V8.84788H13.4998V6.19043H12.252C12.2802 6.8465 12.2944 7.4601 12.2944 8.03135C12.2944 8.60286 12.2802 9.21652 12.252 9.87234H22.0397C22.0148 9.30102 22.0024 8.68742 22.0024 8.03135C22.0024 7.3756 22.0148 6.76187 22.0397 6.19043Z" fill="#1A1A1A"/>
<path d="M26.4297 8.65269C26.5412 8.85048 26.65 9.09314 26.7562 9.38044C26.8447 9.6137 26.9155 9.77781 26.9686 9.87234H25.4075C25.3863 9.81483 25.3578 9.71516 25.3224 9.57315C25.287 9.41771 25.2489 9.2874 25.2083 9.18266C25.1676 9.07792 25.11 8.98661 25.0357 8.90879C24.9154 8.78709 24.7657 8.70841 24.587 8.67293C24.4082 8.63746 24.163 8.61976 23.8516 8.61976V9.87234H22.5293C22.5576 9.21652 22.5718 8.60286 22.5718 8.03135C22.5718 7.4601 22.5576 6.8465 22.5293 6.19043H23.8516V7.5142C23.8869 7.51748 23.94 7.51922 24.0109 7.51922C24.5631 6.9986 24.9737 6.55561 25.2428 6.19043H26.9632L25.3119 7.76262C25.5455 7.85059 25.7579 7.96728 25.9491 8.11251C26.1579 8.27489 26.3182 8.45491 26.4297 8.65269Z" fill="#1A1A1A"/>
<path d="M28.8611 6.19556L28.7709 9.04076L30.0611 6.19556H32.0153C31.9905 6.76706 31.9782 7.37899 31.9782 8.0314C31.9782 8.68747 31.9905 9.30107 32.0153 9.87239H30.6506L30.7462 7.10345L29.4612 9.87239H27.5601C27.5883 9.21657 27.6026 8.60291 27.6026 8.0314C27.6026 7.46355 27.5883 6.85162 27.5601 6.19556H28.8611Z" fill="#1A1A1A"/>
<path d="M39.0002 6.19043H37.7524V7.56985H33.6883V6.19043H32.4404C32.4686 6.8465 32.4828 7.4601 32.4828 8.03135C32.4828 8.60286 32.4686 9.21652 32.4404 9.87234H33.6883V8.49292H37.7524V9.87234H39.0002C38.9755 9.30102 38.963 8.68742 38.963 8.03135C38.963 7.3756 38.9755 6.76187 39.0002 6.19043Z" fill="#1A1A1A"/>
<path d="M2.42514 14.3293C2.04631 14.0046 1.85693 13.5415 1.85693 12.9396C1.85693 12.3345 2.04631 11.8561 2.42514 11.5044C2.80388 11.1528 3.39334 10.9771 4.19339 10.9771C5.31207 10.9771 6.06077 11.3438 6.43962 12.0775C6.12106 12.1823 5.74747 12.3396 5.31918 12.5491C5.21649 12.3598 5.05449 12.2195 4.83331 12.1282C4.61201 12.0369 4.38631 11.9912 4.15626 11.9912C3.81642 11.9912 3.56326 12.0767 3.39688 12.2474C3.23041 12.4181 3.14731 12.6286 3.14731 12.8787C3.14731 13.1493 3.2367 13.3699 3.41548 13.5407C3.59416 13.7113 3.86765 13.7967 4.23592 13.7967C4.5297 13.7967 4.76334 13.7502 4.93683 13.6572C5.11025 13.5642 5.23773 13.4163 5.31918 13.2135C5.60943 13.3623 5.98112 13.5297 6.4343 13.7155C6.25731 14.1247 5.96167 14.4104 5.54754 14.5726C5.13329 14.7349 4.68198 14.816 4.19339 14.816C3.39334 14.816 2.80388 14.6538 2.42514 14.3293Z" fill="#1A1A1A"/>
<path d="M10.7651 13.5456C10.8767 13.7434 10.9854 13.9861 11.0917 14.2734C11.1801 14.5066 11.251 14.6707 11.3041 14.7653H9.74295C9.72171 14.7078 9.6933 14.608 9.65789 14.4661C9.62248 14.3107 9.58435 14.1804 9.54374 14.0756C9.503 13.9709 9.44549 13.8795 9.37115 13.8017C9.2508 13.68 9.10112 13.6015 8.92246 13.5659C8.74368 13.5304 8.49848 13.5127 8.18703 13.5127V14.7653H6.86475C6.89304 14.1095 6.90721 13.4957 6.90721 12.9243C6.90721 12.353 6.89304 11.7394 6.86475 11.0834H8.18703V12.4071C8.22238 12.4104 8.27543 12.4122 8.34631 12.4122C8.89857 11.8915 9.30918 11.4486 9.57828 11.0834H11.2987L9.64737 12.6556C9.88099 12.7435 10.0934 12.8602 10.2846 13.0055C10.4934 13.1678 10.6536 13.3478 10.7651 13.5456Z" fill="#1A1A1A"/>
<path d="M14.5057 13.249C14.3712 12.8939 13.9641 11.8543 13.9641 11.8543C13.9641 11.8543 13.6579 12.6268 13.4172 13.249H14.5057ZM15.0793 14.7653C15.012 14.5726 14.9217 14.331 14.8085 14.0401H13.1144L12.849 14.7653H11.5161L13.0029 11.0834H14.9571L16.4546 14.7653H15.0793Z" fill="#1A1A1A"/>
<path d="M19.0298 12.6404C18.7289 12.6404 18.5015 12.6311 18.3475 12.6125C18.1936 12.594 18.0864 12.5642 18.0262 12.5237C17.966 12.4832 17.936 12.424 17.936 12.3462C17.936 12.2719 17.9643 12.2144 18.0209 12.1738C18.0775 12.1332 18.1837 12.1045 18.3395 12.0876C18.4952 12.0706 18.7253 12.0623 19.0298 12.0623H21.3936V12.6404H19.0298ZM22.6468 11.0834H21.3936L18.6582 11.0885C17.9431 11.0885 17.4439 11.1985 17.1607 11.4182C16.8774 11.638 16.7358 11.9354 16.7358 12.3107C16.7358 12.6048 16.8111 12.8534 16.9615 13.0562C17.112 13.2591 17.3695 13.4062 17.7342 13.4975C17.363 13.9926 16.7837 14.7653 16.7837 14.7653H18.2281C18.3838 14.4881 18.6298 14.0958 18.9661 13.5888H21.3936V14.7653H22.6468C22.6219 14.194 22.6095 13.5804 22.6095 12.9243C22.6095 12.2685 22.6219 11.6548 22.6468 11.0834Z" fill="#1A1A1A"/>
<path d="M5.90819 18.5898C6.01971 18.7877 6.12852 19.0303 6.23478 19.3176C6.32318 19.5509 6.39406 19.7149 6.44717 19.8095H4.88598C4.86476 19.7521 4.83634 19.6523 4.80099 19.5104C4.76555 19.3548 4.72744 19.2246 4.6868 19.1199C4.64608 19.015 4.58857 18.9238 4.51423 18.846C4.39385 18.7243 4.24422 18.6457 4.06554 18.6101C3.88676 18.5747 3.64155 18.5569 3.3301 18.5569V19.8095H2.00781C2.03608 19.1537 2.05031 18.5401 2.05031 17.9686C2.05031 17.3974 2.03608 16.7836 2.00781 16.1277H3.3301V17.4513C3.36545 17.4547 3.4185 17.4563 3.48936 17.4563C4.04166 16.9358 4.45225 16.4929 4.72133 16.1277H6.44178L4.79039 17.6999C5.02404 17.7878 5.23645 17.9044 5.42762 18.0498C5.63648 18.212 5.79666 18.3921 5.90819 18.5898Z" fill="#1A1A1A"/>
<path d="M9.64923 18.2932C9.51465 17.9382 9.10763 16.8986 9.10763 16.8986C9.10763 16.8986 8.80139 17.6712 8.5607 18.2932H9.64923ZM10.2228 19.8095C10.1556 19.6168 10.0652 19.3751 9.95195 19.0844H8.25799L7.99248 19.8095H6.65967L8.1465 16.1277H10.1007L11.5981 19.8095H10.2228Z" fill="#1A1A1A"/>
<path d="M18.122 17.786C18.0636 17.8436 17.9609 17.8833 17.814 17.9052C17.6672 17.9272 17.4467 17.9382 17.1529 17.9382H13.1857V17.1369H17.1529C17.4538 17.1369 17.6777 17.1471 17.8247 17.1673C17.9715 17.1876 18.0725 17.2256 18.1273 17.2815C18.1821 17.3372 18.2097 17.4208 18.2097 17.5325C18.2097 17.644 18.1804 17.7285 18.122 17.786ZM18.9955 16.4903C18.7194 16.2519 18.2291 16.1328 17.5246 16.1328H16.9376L13.1857 16.1277H11.8794C11.9076 16.7836 11.9219 17.3974 11.9219 17.9686C11.9219 18.5401 11.9076 19.1537 11.8794 19.8095H13.1857V18.9169H17.5246C18.0096 18.9169 18.3902 18.8586 18.6664 18.742C18.9425 18.6254 19.1354 18.4632 19.2452 18.2552C19.3548 18.0472 19.4097 17.7945 19.4097 17.497C19.4097 17.0642 19.2717 16.7287 18.9955 16.4903Z" fill="#1A1A1A"/>
<path d="M24.4184 17.1927C23.8626 17.1759 23.3227 17.1656 22.7988 17.1623V19.8095H21.4713V17.1623C20.9437 17.1656 20.4057 17.1759 19.8569 17.1927V16.1277H24.4184V17.1927Z" fill="#1A1A1A"/>
<path d="M27.3109 18.2932C27.1763 17.9382 26.7692 16.8986 26.7692 16.8986C26.7692 16.8986 26.463 17.6712 26.2223 18.2932H27.3109ZM27.8844 19.8095C27.8171 19.6168 27.7269 19.3751 27.6136 19.0844H25.9196L25.6541 19.8095H24.3213L25.8081 16.1277H27.7623L29.2598 19.8095H27.8844Z" fill="#1A1A1A"/>
</g>
<defs>
<clipPath id="clip0_61_3538">
<rect width="40.8571" height="26" rx="5" fill="white"/>
</clipPath>
</defs>
</svg>
