<svg width="19" height="18" viewBox="0 0 19 18" fill="none" xmlns="http://www.w3.org/2000/svg">
<path fill-rule="evenodd" clip-rule="evenodd" d="M2.5835 14.0625C2.5835 13.9133 2.64276 13.7702 2.74825 13.6648C2.85374 13.5593 2.99681 13.5 3.146 13.5H11.021C11.1702 13.5 11.3133 13.5593 11.4187 13.6648C11.5242 13.7702 11.5835 13.9133 11.5835 14.0625C11.5835 14.2117 11.5242 14.3548 11.4187 14.4602C11.3133 14.5657 11.1702 14.625 11.021 14.625H3.146C2.99681 14.625 2.85374 14.5657 2.74825 14.4602C2.64276 14.3548 2.5835 14.2117 2.5835 14.0625ZM2.5835 10.6875C2.5835 10.5383 2.64276 10.3952 2.74825 10.2898C2.85374 10.1843 2.99681 10.125 3.146 10.125H15.521C15.6702 10.125 15.8133 10.1843 15.9187 10.2898C16.0242 10.3952 16.0835 10.5383 16.0835 10.6875C16.0835 10.8367 16.0242 10.9798 15.9187 11.0852C15.8133 11.1907 15.6702 11.25 15.521 11.25H3.146C2.99681 11.25 2.85374 11.1907 2.74825 11.0852C2.64276 10.9798 2.5835 10.8367 2.5835 10.6875ZM2.5835 7.3125C2.5835 7.16332 2.64276 7.02024 2.74825 6.91475C2.85374 6.80926 2.99681 6.75 3.146 6.75H11.021C11.1702 6.75 11.3133 6.80926 11.4187 6.91475C11.5242 7.02024 11.5835 7.16332 11.5835 7.3125C11.5835 7.46168 11.5242 7.60476 11.4187 7.71025C11.3133 7.81574 11.1702 7.875 11.021 7.875H3.146C2.99681 7.875 2.85374 7.81574 2.74825 7.71025C2.64276 7.60476 2.5835 7.46168 2.5835 7.3125ZM2.5835 3.9375C2.5835 3.78832 2.64276 3.64524 2.74825 3.53975C2.85374 3.43426 2.99681 3.375 3.146 3.375H15.521C15.6702 3.375 15.8133 3.43426 15.9187 3.53975C16.0242 3.64524 16.0835 3.78832 16.0835 3.9375C16.0835 4.08668 16.0242 4.22976 15.9187 4.33525C15.8133 4.44074 15.6702 4.5 15.521 4.5H3.146C2.99681 4.5 2.85374 4.44074 2.74825 4.33525C2.64276 4.22976 2.5835 4.08668 2.5835 3.9375Z" fill="#88888B"/>
</svg>
