<svg width="19" height="18" viewBox="0 0 19 18" fill="none" xmlns="http://www.w3.org/2000/svg">
<path d="M14.9165 15H4.4165C4.01868 15 3.63715 14.842 3.35584 14.5607C3.07454 14.2794 2.9165 13.8978 2.9165 13.5V6.75C2.9165 6.35218 3.07454 5.97064 3.35584 5.68934C3.63715 5.40804 4.01868 5.25 4.4165 5.25H14.9165C15.3143 5.25 15.6959 5.40804 15.9772 5.68934C16.2585 5.97064 16.4165 6.35218 16.4165 6.75V13.5C16.4165 13.8978 16.2585 14.2794 15.9772 14.5607C15.6959 14.842 15.3143 15 14.9165 15Z" stroke="#88888B"/>
<path d="M13.0415 10.5C12.942 10.5 12.8467 10.4605 12.7763 10.3902C12.706 10.3198 12.6665 10.2245 12.6665 10.125C12.6665 10.0255 12.706 9.93016 12.7763 9.85983C12.8467 9.78951 12.942 9.75 13.0415 9.75C13.141 9.75 13.2363 9.78951 13.3067 9.85983C13.377 9.93016 13.4165 10.0255 13.4165 10.125C13.4165 10.2245 13.377 10.3198 13.3067 10.3902C13.2363 10.4605 13.141 10.5 13.0415 10.5Z" fill="#88888B" stroke="#88888B" stroke-linecap="round" stroke-linejoin="round"/>
<path d="M14.1665 5.25V4.20225C14.1664 3.97238 14.1135 3.74559 14.0119 3.53941C13.9103 3.33323 13.7626 3.15317 13.5803 3.01313C13.398 2.8731 13.186 2.77683 12.9605 2.73177C12.7351 2.68671 12.5024 2.69406 12.2803 2.75325L4.03025 4.953C3.71079 5.03813 3.42841 5.22642 3.227 5.48859C3.02558 5.75077 2.91643 6.07214 2.9165 6.40275V6.75" stroke="#88888B"/>
</svg>
